<?xml version="1.0" encoding="UTF-8" standalone="no"?>
<!-- Created with Inkscape (http://www.inkscape.org/) -->

<svg
   version="1.1"
   id="svg9"
   width="168"
   height="153"
   viewBox="0 0 168 153"
   sodipodi:docname="trashcan.svg"
   inkscape:version="1.1.1 (3bf5ae0d25, 2021-09-20)"
   xmlns:inkscape="http://www.inkscape.org/namespaces/inkscape"
   xmlns:sodipodi="http://sodipodi.sourceforge.net/DTD/sodipodi-0.dtd"
   xmlns="http://www.w3.org/2000/svg"
   xmlns:svg="http://www.w3.org/2000/svg">
  <defs
     id="defs13" />
  <sodipodi:namedview
     id="namedview11"
     pagecolor="#ffffff"
     bordercolor="#666666"
     borderopacity="1.0"
     inkscape:pageshadow="2"
     inkscape:pageopacity="0.0"
     inkscape:pagecheckerboard="0"
     showgrid="false"
     inkscape:zoom="2.6176471"
     inkscape:cx="78.314607"
     inkscape:cy="67.426966"
     inkscape:window-width="1920"
     inkscape:window-height="1009"
     inkscape:window-x="-8"
     inkscape:window-y="-8"
     inkscape:window-maximized="1"
     inkscape:current-layer="g15" />
  <g
     inkscape:groupmode="layer"
     inkscape:label="Image"
     id="g15">
    <path
       style="fill:#c4c4c4"
       d="m 61.691143,146.0265 c -4.668178,-2.47041 -7.441393,-5.51459 -8.558597,-9.39485 -2.076074,-7.2106 -9.885622,-75.295596 -8.857069,-77.217465 0.933804,-1.744829 3.202389,-1.842421 42.828405,-1.842421 35.088208,0 42.034188,0.231129 43.030698,1.431855 0.9276,1.117685 0.40543,7.754979 -2.37984,30.25 -1.96249,15.849971 -4.07517,33.000191 -4.69483,38.111601 -1.20265,9.92031 -2.98557,13.75517 -8.18947,17.61459 -2.64806,1.96391 -4.27002,2.10855 -26.499998,2.36312 -20.065433,0.22979 -24.13715,0.0289 -26.679299,-1.31643 z m 48.542817,-7.47766 c 2.8761,-1.53924 3.90133,-4.15042 4.98686,-12.70103 2.45655,-19.35016 6.97032,-57.40726 6.97032,-58.76915 0,-1.313825 -4.48437,-1.506896 -34.999997,-1.506896 -27.334412,0 -34.999557,0.273771 -34.997978,1.25 0.0076,4.698429 8.209669,67.277026 9.015147,68.782076 0.554047,1.03525 1.789339,2.33785 2.745094,2.89468 2.331717,1.35848 43.752094,1.40351 46.280554,0.0503 z m -40.913639,-7.87608 c -0.996437,-0.63122 -1.872056,-6.97684 -3.206104,-23.23469 -1.009405,-12.301466 -1.855035,-24.953806 -1.879178,-28.116306 -0.04153,-5.440141 0.08752,-5.75 2.394831,-5.75 2.973415,0 2.906536,-0.396224 5.379949,31.873466 1.521056,19.84465 1.583711,23.58129 0.415,24.75 -1.611027,1.61102 -1.372964,1.57441 -3.104498,0.47753 z m 33.120819,0.16836 c -1.6334,-0.56976 -1.59019,-5.18317 0.27317,-29.16545 2.20786,-28.416205 2.15307,-28.103906 4.93111,-28.103906 1.28246,0 2.53654,0.5625 2.78684,1.25 0.34243,0.940529 -3.68212,54.657576 -4.15011,55.393006 -0.37102,0.58304 -2.8202,0.98243 -3.84101,0.62635 z m -17.771244,-1.46413 c -0.281768,-0.73428 -0.392256,-13.47834 -0.245529,-28.32014 l 0.266776,-26.985086 h 2.5 2.5 v 27.999996 28 l -2.254471,0.32014 c -1.239959,0.17607 -2.485008,-0.28064 -2.766776,-1.01491 z M 39.822053,53.059817 c -2.168086,-2.168086 -3.103719,-9.966592 -1.741317,-14.513884 1.569783,-5.239467 5.921006,-8.571889 14.426943,-11.049 3.950905,-1.150588 7.745964,-2.265323 8.433464,-2.477189 0.747001,-0.230202 1.25,-2.119098 1.25,-4.694089 0,-4.593483 1.811886,-8.047664 5.161817,-9.840493 2.852377,-1.5265461 15.324465,-4.914205 18.075525,-4.90966 3.437824,0.00568 8.272184,3.3979389 9.677505,6.790686 l 1.255466,3.030962 7.164844,-1.990948 c 9.46686,-2.630627 14.7454,-2.565805 19.28005,0.236766 5.59387,3.457203 9.50697,14.068256 6.13479,16.635551 -0.6875,0.523404 -5.075,1.963194 -9.75,3.199532 -4.675,1.236337 -23.893258,6.488198 -42.707244,11.6708 -18.813985,5.182602 -34.419342,9.422913 -34.678571,9.422913 -0.259229,0 -1.151701,-0.680376 -1.983272,-1.511947 z M 84.94197,34.581436 c 19.38795,-5.322896 35.56295,-9.99012 35.94444,-10.37161 1.29255,-1.292553 -3.50012,-4.948016 -6.37716,-4.863981 -2.8201,0.08237 -59.349191,15.298903 -64.606324,17.390763 -3.083343,1.22689 -4.711783,3.589758 -4.711783,6.836802 0,1.759854 0.393726,2.006515 2.25,1.409574 1.2375,-0.397956 18.112872,-5.078653 37.500827,-10.401548 z M 79.654417,19.97059 c 7.597735,-1.90849 8.777116,-2.608804 7.963607,-4.728776 -0.790545,-2.060126 -1.247156,-2.052733 -9.926881,0.160744 -6.433006,1.640526 -7.026705,2.014315 -7.329697,4.614734 -0.272133,2.335569 -0.02726,2.71356 1.402482,2.164915 0.952699,-0.365585 4.503419,-1.360812 7.890489,-2.211617 z"
       id="path99" />
  </g>
</svg>
