<?xml version="1.0" encoding="UTF-8" standalone="no"?>
<!-- Created with Inkscape (http://www.inkscape.org/) -->

<svg
   version="1.1"
   id="svg204"
   width="253"
   height="253"
   viewBox="0 0 253 253"
   sodipodi:docname="unlock.svg"
   inkscape:version="1.1.1 (3bf5ae0d25, 2021-09-20)"
   xmlns:inkscape="http://www.inkscape.org/namespaces/inkscape"
   xmlns:sodipodi="http://sodipodi.sourceforge.net/DTD/sodipodi-0.dtd"
   xmlns="http://www.w3.org/2000/svg"
   xmlns:svg="http://www.w3.org/2000/svg">
  <defs
     id="defs208" />
  <sodipodi:namedview
     id="namedview206"
     pagecolor="#ffffff"
     bordercolor="#666666"
     borderopacity="1.0"
     inkscape:pageshadow="2"
     inkscape:pageopacity="0.0"
     inkscape:pagecheckerboard="0"
     showgrid="false"
     inkscape:zoom="3.256917"
     inkscape:cx="126.5"
     inkscape:cy="102.09041"
     inkscape:window-width="1920"
     inkscape:window-height="1009"
     inkscape:window-x="-8"
     inkscape:window-y="-8"
     inkscape:window-maximized="1"
     inkscape:current-layer="g210" />
  <g
     inkscape:groupmode="layer"
     inkscape:label="Image"
     id="g210">
    <path
       style="fill:#000000"
       d="m 47.295443,252.0071 c -8.24287,-1.96332 -16.88571,-9.89365 -20.00591,-18.35664 -0.84601,-2.29465 -1.19517,-19.68467 -1.25,-62.25592 -0.0833,-64.69708 -0.11716,-64.28309 5.84627,-71.517764 3.65332,-4.43212 11.83432,-8.89876 17.87871,-9.7614 l 4.69894,-0.67061 0.52013,-24.989186 c 0.46899,-22.532956 0.73102,-25.508281 2.66579,-30.270404 C 64.828563,16.514728 80.336533,3.9022134 98.713653,0.78790039 120.57272,-2.9164866 143.28686,8.8372854 153.16854,28.966398 c 4.40566,8.974381 6.12426,17.977829 5.64752,29.586419 -0.32697,7.961663 -0.5569,8.762474 -3.15839,11.00018 -3.78695,3.257393 -9.58352,3.272853 -13.34706,0.0356 -2.64862,-2.27825 -2.79043,-2.874872 -3.38717,-14.25 -0.53279,-10.156257 -1.0085,-12.626167 -3.29131,-17.088769 -3.36819,-6.584383 -8.28399,-11.52234 -14.95211,-15.019493 -4.49202,-2.35588 -6.39717,-2.73647 -13.71657,-2.74014 -10.001367,-0.005 -15.360787,2.002277 -22.215067,8.32033 -8.95278,8.252387 -10.78493,15.430723 -10.78493,42.255259 v 18.826412 l 47.249997,0.2871 c 46.34532,0.28161 47.32789,0.3288 51.31821,2.46469 2.23752,1.19767 5.76875,4.05986 7.84717,6.36043 7.45463,8.251384 7.08462,4.493024 7.08462,71.961984 v 60.5 l -2.70267,5.12335 c -1.48646,2.81784 -4.81469,6.98243 -7.39605,9.25463 -8.16936,7.19096 -7.60558,7.13509 -70.83278,7.01966 -30.837667,-0.0563 -57.494097,-0.44192 -59.236507,-0.85694 z m 117.744927,-21.96378 2.92308,-2.92307 v -55.94207 c 0,-55.08088 -0.0319,-55.98262 -2.07258,-58.57692 l -2.07258,-2.63486 h -56.92742 c -55.594077,0 -56.974257,0.0468 -58.927417,2 -1.95325,1.95325 -2,3.33333 -2,59.04545 v 57.04546 l 2.45455,2.45454 2.45455,2.45455 h 55.622367 55.62238 z m -65.153837,-25 -2.92308,-2.92307 v -14.50883 -14.50883 l -3.11573,-2.2186 c -3.51387,-2.50209 -7.85975,-10.94692 -7.8745,-15.30157 -0.0308,-9.09104 6.88417,-18.34467 15.290117,-20.46132 8.75045,-2.20338 15.85054,0.41382 22.06226,8.13249 2.50767,3.11602 3.11884,4.90283 3.44865,10.08241 0.4637,7.28235 -1.68654,12.66517 -6.76695,16.94005 l -3.04385,2.56123 v 13.09668 c 0,18.12843 -1.86252,22.03244 -10.51118,22.03244 -2.69277,0 -4.40491,-0.76225 -6.565737,-2.92308 z M 202.96345,99.420496 c -5.775,-2.42129 -11.2875,-5.36384 -12.25,-6.539 -4.17135,-5.093 -0.82518,-14.247565 5.65191,-15.462673 4.42062,-0.829314 23.85692,6.653332 27.97328,10.769243 2.51986,2.51958 2.80558,3.39396 2.31184,7.07504 -0.72974,5.440624 -4.34894,8.731464 -9.49279,8.631514 -2.03183,-0.0395 -8.41924,-2.05283 -14.19424,-4.474124 z M 192.26921,69.552982 c -2.29796,-1.976626 -2.80576,-3.224515 -2.80576,-6.895013 0,-2.904972 0.63046,-5.178248 1.7921,-6.461848 2.44354,-2.700077 22.69298,-11.229722 26.65945,-11.229722 7.66285,0 12.08346,10.69264 6.66179,16.113635 -3.15628,3.155886 -21.64861,10.886364 -26.04163,10.886364 -2.21605,0 -4.46902,-0.867763 -6.26595,-2.413416 z M 178.96345,54.297278 c -2.98811,-1.166243 -5.98193,-4.71764 -6.55583,-7.77681 -0.44159,-2.35387 0.61836,-6.081408 4.29098,-15.090069 4.43767,-10.885293 5.20993,-12.128955 8.56519,-13.793517 6.74505,-3.346251 13.69477,0.863941 13.70407,8.302022 0.006,4.534818 -7.44833,23.156457 -10.36666,25.898084 -2.36417,2.221023 -7.13221,3.43819 -9.63775,2.46029 z"
       id="path232" />
  </g>
</svg>
